<?xml version="1.0" standalone="no"?><!DOCTYPE svg PUBLIC "-//W3C//DTD SVG 1.1//EN" "http://www.w3.org/Graphics/SVG/1.1/DTD/svg11.dtd"><svg viewBox="0 0 1024 1024" version="1.1" xmlns="http://www.w3.org/2000/svg" xmlns:xlink="http://www.w3.org/1999/xlink" width="32" height="32"><path d="M496.71027 181.562149c-6.418176-19.790742 11.908214-44.769646 33.322943-40.593534 25.596981 8.117888 47.479361 24.434505 70.977541 36.96182 69.673849 38.510082 138.878001 78.016865 208.928427 115.832122 12.678764 7.732102 27.297716 14.377452 35.496445 27.364231 2.703575 11.523451 2.62785 23.514553 2.855024 35.338856-0.151449 100.752682-0.302899 201.505363 0 302.250882-1.239224 12.526291 2.4017 28.300556-9.04705 37.196157-20.569478 19.095917-46.39261 31.005155-70.057589 45.77351-67.415412 40.820708-135.850038 80.025615-202.728214 121.624035-13.924127 7.890714-27.682479 17.321504-43.765783 20.184715-14.151301-0.77055-26.292829-9.280364-38.435381-15.774265-81.732489-50.183959-164.693969-98.352005-247.038396-147.531078-13.380752-9.356089-32.786731-19.255553-30.392194-38.501896-0.77055-113.590058-0.384763-227.179093-0.158612-340.686263-2.543939-18.243503 10.525728-39.824007 30.702256-38.192857 15.389502 2.703575 28.686343 11.440563 42.058908 19.014052 80.56899 48.719608 161.839969 96.275717 242.643296 144.601352 10.285251 6.721075 20.409842 13.758352 30.460756 20.795629 8.925277 5.936199 9.43693 25.804712 2.785439 36.037774-9.721409 14.667048-23.74889 17.907858-32.241308 13.82896-11.908214-5.874801-23.815405-11.748578-35.497469-18.093077-72.987315-43.916209-146.368602-87.213317-219.280192-131.213437 0 87.606267-0.384763 175.212534 0 262.819824 0.226151 3.329838 0.694825 10.04989 0.929162 13.455453 31.388894 24.275893 67.271126 41.748846 101.054557 62.469773 50.80306 29.464055 99.899244 62.015426 152.333454 88.618317 87.289042-50.258661 173.732833-102.066607 259.33035-155.037029 9.122775-43.841507 4.100388-88.837304 4.6366-133.222187-1.072425-57.917084 3.413749-115.983571-2.310625-173.74102l-4.719488-3.405563c-83.505879-48.862871-168.793334-94.719268-253.53946-141.347239C515.035638 201.278189 500.652046 195.251939 496.71027 181.562149z" fill="#515151"></path></svg>